HIERARCHY
ROOT mixamorig:Hips
{
	OFFSET 0.000000 201.639420 0.000000
	CHANNELS 6 Xposition Yposition Zposition Xrotation Yrotation Zrotation
	JOINT mixamorig:Spine
	{
		OFFSET 0.006200 19.524994 -2.481800
		CHANNELS 3 Xrotation Yrotation Zrotation
		JOINT mixamorig:Spine1
		{
			OFFSET -0.000900 22.835007 -2.825400
			CHANNELS 3 Xrotation Yrotation Zrotation
			JOINT mixamorig:Spine2
			{
				OFFSET -0.020600 26.552490 -3.193300
				CHANNELS 3 Xrotation Yrotation Zrotation
				JOINT mixamorig:Neck
				{
					OFFSET -0.060000 30.701813 1.352200
					CHANNELS 3 Xrotation Yrotation Zrotation
					JOINT mixamorig:Head
					{
						OFFSET -0.087200 22.547607 3.670900
						CHANNELS 3 Xrotation Yrotation Zrotation
						JOINT mixamorig:HeadTop_End
						{
							OFFSET -0.830600 40.355194 7.893500
							CHANNELS 3 Xrotation Yrotation Zrotation
							End Site
							{
								OFFSET 0.000000 30.592346 0.000000
							}
						}
						JOINT mixamorig:RightEye
						{
							OFFSET -6.302100 18.118591 16.197100
							CHANNELS 3 Xrotation Yrotation Zrotation
							End Site
							{
								OFFSET 0.000000 30.592346 0.000000
							}
						}
						JOINT mixamorig:LeftEye
						{
							OFFSET 6.741500 18.382690 16.401899
							CHANNELS 3 Xrotation Yrotation Zrotation
							End Site
							{
								OFFSET 0.000000 30.592346 0.000000
							}
						}
					}
				}
				JOINT mixamorig:LeftShoulder
				{
					OFFSET 11.924900 18.230499 1.425400
					CHANNELS 3 Xrotation Yrotation Zrotation
					JOINT mixamorig:LeftArm
					{
						OFFSET 25.435989 -0.697632 -5.229300
						CHANNELS 3 Xrotation Yrotation Zrotation
						JOINT mixamorig:LeftForeArm
						{
							OFFSET 54.684776 0.000000 0.000000
							CHANNELS 3 Xrotation Yrotation Zrotation
							JOINT mixamorig:LeftHand
							{
								OFFSET 55.098175 0.000000 0.000000
								CHANNELS 3 Xrotation Yrotation Zrotation
								JOINT mixamorig:LeftHandMiddle1
								{
									OFFSET 23.369751 0.000000 0.000000
									CHANNELS 3 Xrotation Yrotation Zrotation
									JOINT mixamorig:LeftHandMiddle2
									{
										OFFSET 6.378677 0.000000 0.000000
										CHANNELS 3 Xrotation Yrotation Zrotation
										JOINT mixamorig:LeftHandMiddle3
										{
											OFFSET 6.148331 0.000000 0.000000
											CHANNELS 3 Xrotation Yrotation Zrotation
											JOINT mixamorig:LeftHandMiddle4
											{
												OFFSET 6.582504 0.000000 0.000000
												CHANNELS 3 Xrotation Yrotation Zrotation
												End Site
												{
													OFFSET -1.168900 6.395691 1.028606
												}
											}
										}
									}
								}
								JOINT mixamorig:LeftHandThumb1
								{
									OFFSET 7.235672 -3.848206 5.434273
									CHANNELS 3 Xrotation Yrotation Zrotation
									JOINT mixamorig:LeftHandThumb2
									{
										OFFSET 6.568451 -3.792297 3.792300
										CHANNELS 3 Xrotation Yrotation Zrotation
										JOINT mixamorig:LeftHandThumb3
										{
											OFFSET 6.063080 -3.500519 3.500518
											CHANNELS 3 Xrotation Yrotation Zrotation
											JOINT mixamorig:LeftHandThumb4
											{
												OFFSET 4.793182 -2.767334 2.767349
												CHANNELS 3 Xrotation Yrotation Zrotation
												End Site
												{
													OFFSET 0.101639 6.054260 1.275483
												}
											}
										}
									}
								}
								JOINT mixamorig:LeftHandIndex1
								{
									OFFSET 23.101074 -0.309540 4.992809
									CHANNELS 3 Xrotation Yrotation Zrotation
									JOINT mixamorig:LeftHandIndex2
									{
										OFFSET 6.226883 0.000000 0.000000
										CHANNELS 3 Xrotation Yrotation Zrotation
										JOINT mixamorig:LeftHandIndex3
										{
											OFFSET 6.094330 0.000000 0.000000
											CHANNELS 3 Xrotation Yrotation Zrotation
											JOINT mixamorig:LeftHandIndex4
											{
												OFFSET 5.482605 0.000000 0.000000
												CHANNELS 3 Xrotation Yrotation Zrotation
												End Site
												{
													OFFSET -1.427902 5.233032 0.797164
												}
											}
										}
									}
								}
								JOINT mixamorig:LeftHandRing1
								{
									OFFSET 22.299240 0.021149 -3.964172
									CHANNELS 3 Xrotation Yrotation Zrotation
									JOINT mixamorig:LeftHandRing2
									{
										OFFSET 6.321869 0.000000 0.000000
										CHANNELS 3 Xrotation Yrotation Zrotation
										JOINT mixamorig:LeftHandRing3
										{
											OFFSET 5.899796 0.000000 0.000000
											CHANNELS 3 Xrotation Yrotation Zrotation
											JOINT mixamorig:LeftHandRing4
											{
												OFFSET 6.517899 0.000000 0.000000
												CHANNELS 3 Xrotation Yrotation Zrotation
												End Site
												{
													OFFSET -1.637299 6.232208 0.980890
												}
											}
										}
									}
								}
								JOINT mixamorig:LeftHandPinky1
								{
									OFFSET 20.463791 -0.302338 -8.562233
									CHANNELS 3 Xrotation Yrotation Zrotation
									JOINT mixamorig:LeftHandPinky2
									{
										OFFSET 6.908646 0.000000 0.000000
										CHANNELS 3 Xrotation Yrotation Zrotation
										JOINT mixamorig:LeftHandPinky3
										{
											OFFSET 4.622849 0.000000 0.000000
											CHANNELS 3 Xrotation Yrotation Zrotation
											JOINT mixamorig:LeftHandPinky4
											{
												OFFSET 5.216080 0.000000 0.000000
												CHANNELS 3 Xrotation Yrotation Zrotation
												End Site
												{
													OFFSET -0.606308 5.116241 0.814926
												}
											}
										}
									}
								}
							}
						}
					}
				}
				JOINT mixamorig:RightShoulder
				{
					OFFSET -12.001300 18.284088 1.348900
					CHANNELS 3 Xrotation Yrotation Zrotation
					JOINT mixamorig:RightArm
					{
						OFFSET -25.308500 -0.751312 -5.164599
						CHANNELS 3 Xrotation Yrotation Zrotation
						JOINT mixamorig:RightForeArm
						{
							OFFSET -54.684429 0.000000 0.000000
							CHANNELS 3 Xrotation Yrotation Zrotation
							JOINT mixamorig:RightHand
							{
								OFFSET -55.150291 0.000000 0.000000
								CHANNELS 3 Xrotation Yrotation Zrotation
								JOINT mixamorig:RightHandMiddle1
								{
									OFFSET -23.317566 0.000000 0.000000
									CHANNELS 3 Xrotation Yrotation Zrotation
									JOINT mixamorig:RightHandMiddle2
									{
										OFFSET -6.378403 0.000000 0.000000
										CHANNELS 3 Xrotation Yrotation Zrotation
										JOINT mixamorig:RightHandMiddle3
										{
											OFFSET -6.148193 0.000000 0.000000
											CHANNELS 3 Xrotation Yrotation Zrotation
											JOINT mixamorig:RightHandMiddle4
											{
												OFFSET -6.583389 0.000000 0.000000
												CHANNELS 3 Xrotation Yrotation Zrotation
												End Site
												{
													OFFSET 1.171692 6.395905 1.029786
												}
											}
										}
									}
								}
								JOINT mixamorig:RightHandThumb1
								{
									OFFSET -7.190521 -3.860474 5.435846
									CHANNELS 3 Xrotation Yrotation Zrotation
									JOINT mixamorig:RightHandThumb2
									{
										OFFSET -6.567429 -3.791718 3.791708
										CHANNELS 3 Xrotation Yrotation Zrotation
										JOINT mixamorig:RightHandThumb3
										{
											OFFSET -6.062469 -3.500153 3.500166
											CHANNELS 3 Xrotation Yrotation Zrotation
											JOINT mixamorig:RightHandThumb4
											{
												OFFSET -4.792618 -2.767029 2.767022
												CHANNELS 3 Xrotation Yrotation Zrotation
												End Site
												{
													OFFSET -0.100327 6.053253 1.276754
												}
											}
										}
									}
								}
								JOINT mixamorig:RightHandIndex1
								{
									OFFSET -23.048981 -0.310791 4.992554
									CHANNELS 3 Xrotation Yrotation Zrotation
									JOINT mixamorig:RightHandIndex2
									{
										OFFSET -6.227539 0.000000 0.000000
										CHANNELS 3 Xrotation Yrotation Zrotation
										JOINT mixamorig:RightHandIndex3
										{
											OFFSET -6.095047 0.000000 0.000000
											CHANNELS 3 Xrotation Yrotation Zrotation
											JOINT mixamorig:RightHandIndex4
											{
												OFFSET -5.484772 0.000000 0.000000
												CHANNELS 3 Xrotation Yrotation Zrotation
												End Site
												{
													OFFSET 1.420593 5.237305 0.797056
												}
											}
										}
									}
								}
								JOINT mixamorig:RightHandRing1
								{
									OFFSET -22.246323 0.020569 -3.963762
									CHANNELS 3 Xrotation Yrotation Zrotation
									JOINT mixamorig:RightHandRing2
									{
										OFFSET -6.322128 0.000000 0.000000
										CHANNELS 3 Xrotation Yrotation Zrotation
										JOINT mixamorig:RightHandRing3
										{
											OFFSET -5.900024 0.000000 0.000000
											CHANNELS 3 Xrotation Yrotation Zrotation
											JOINT mixamorig:RightHandRing4
											{
												OFFSET -6.518356 0.000000 0.000000
												CHANNELS 3 Xrotation Yrotation Zrotation
												End Site
												{
													OFFSET 1.636398 6.232697 0.982186
												}
											}
										}
									}
								}
								JOINT mixamorig:RightHandPinky1
								{
									OFFSET -20.411011 -0.303314 -8.561701
									CHANNELS 3 Xrotation Yrotation Zrotation
									JOINT mixamorig:RightHandPinky2
									{
										OFFSET -6.907349 0.000000 0.000000
										CHANNELS 3 Xrotation Yrotation Zrotation
										JOINT mixamorig:RightHandPinky3
										{
											OFFSET -4.623840 0.000000 0.000000
											CHANNELS 3 Xrotation Yrotation Zrotation
											JOINT mixamorig:RightHandPinky4
											{
												OFFSET -5.218353 0.000000 0.000000
												CHANNELS 3 Xrotation Yrotation Zrotation
												End Site
												{
													OFFSET 0.602097 5.118835 0.816273
												}
											}
										}
									}
								}
							}
						}
					}
				}
			}
		}
	}
	JOINT mixamorig:LeftUpLeg
	{
		OFFSET 18.168400 -13.561905 -0.039000
		CHANNELS 3 Xrotation Yrotation Zrotation
		JOINT mixamorig:LeftLeg
		{
			OFFSET 0.577358 -80.825211 -3.695000
			CHANNELS 3 Xrotation Yrotation Zrotation
			JOINT mixamorig:LeftFoot
			{
				OFFSET -0.577356 -83.370262 -6.520700
				CHANNELS 3 Xrotation Yrotation Zrotation
				JOINT mixamorig:LeftToeBase
				{
					OFFSET 0.750401 -20.798306 25.135401
					CHANNELS 3 Xrotation Yrotation Zrotation
					JOINT mixamorig:LeftToe_End
					{
						OFFSET -0.000500 0.001200 19.917799
						CHANNELS 3 Xrotation Yrotation Zrotation
						End Site
						{
							OFFSET 0.000000 19.917805 0.000000
						}
					}
				}
			}
		}
	}
	JOINT mixamorig:RightUpLeg
	{
		OFFSET -18.162500 -13.585098 -0.041000
		CHANNELS 3 Xrotation Yrotation Zrotation
		JOINT mixamorig:RightLeg
		{
			OFFSET -0.595024 -80.945297 -3.631900
			CHANNELS 3 Xrotation Yrotation Zrotation
			JOINT mixamorig:RightFoot
			{
				OFFSET 0.595024 -83.218193 -6.561200
				CHANNELS 3 Xrotation Yrotation Zrotation
				JOINT mixamorig:RightToeBase
				{
					OFFSET -0.753601 -20.807106 25.115000
					CHANNELS 3 Xrotation Yrotation Zrotation
					JOINT mixamorig:RightToe_End
					{
						OFFSET 0.000299 0.001700 19.918200
						CHANNELS 3 Xrotation Yrotation Zrotation
						End Site
						{
							OFFSET 0.000000 19.918203 0.000000
						}
					}
				}
			}
		}
	}
}
MOTION
Frames: 4
Frame Time: 0.033333
0.130802 190.012604 1.273487 -1.498077 6.208105 2.996821 5.550190 -0.002883 -0.494879 11.100337 0.009741 -0.734990 11.100325 0.009739 -0.734990 -10.509824 -1.525006 -3.378780 -17.396611 -3.946747 2.467865 -0.000000 0.000000 0.000000 -0.000000 0.000000 0.000000 -0.000000 0.000000 0.000000 9.458414 -6.444342 -14.996466 -10.796224 9.345786 -35.207327 -0.095834 -54.971695 0.112849 23.524339 -11.401738 15.536988 1.641869 7.127210 -4.239655 -0.187955 -0.789336 -15.969020 0.000002 -0.000002 -0.000004 -0.000006 0.000000 0.000001 7.350849 -14.484220 -10.934824 -1.067067 0.182844 1.946069 0.000016 0.000003 0.000011 0.000000 0.000002 -0.000004 5.776123 -9.584538 -10.641313 0.033759 0.666546 -10.636454 -0.000004 -0.000010 -0.000008 0.000001 0.000001 0.000001 1.677308 11.039944 -8.046053 -0.183069 -2.876868 -23.912158 0.000002 -0.000002 -0.000000 0.000001 -0.000001 -0.000001 0.734595 28.047561 -16.218766 -0.849527 -6.142186 -29.148259 -0.000005 -0.000003 0.000000 -0.000003 0.000000 0.000002 -3.413169 0.044908 -0.357067 -10.173241 -10.155358 60.475069 -0.094731 55.194834 -0.283305 33.306919 -13.799022 -17.225230 -1.738481 -1.670982 3.393787 -0.252706 0.798087 21.448249 0.000009 0.000008 0.000009 0.000003 0.000001 -0.000000 -4.978393 12.391680 9.407255 -1.210141 -0.220431 -2.121014 -0.000004 -0.000016 0.000003 -0.000001 0.000001 0.000001 10.258593 13.576569 6.067473 0.012534 -0.647875 4.076589 0.000000 -0.000005 -0.000001 -0.000001 0.000000 -0.000002 -0.824278 -13.700962 18.348835 -0.242200 2.213613 16.221187 0.000008 0.000009 0.000006 -0.000001 0.000000 -0.000002 -4.380728 -23.900575 30.060318 -0.233910 5.125294 12.870313 0.000000 -0.000002 -0.000003 0.000001 -0.000001 -0.000003 -24.012635 -6.422423 9.282283 27.143802 -0.068611 -1.018948 -2.086598 -3.023277 -12.965049 0.002987 -0.026200 0.062608 0.000000 0.000000 0.000000 -22.498764 -12.046026 -19.624153 40.290190 0.087933 1.451973 -15.791235 -8.008637 9.109492 0.613166 -0.189149 0.450541 -0.000000 0.000001 0.000000 
0.230795 189.843002 1.671789 -1.596723 6.342445 2.952232 5.477153 0.000502 -0.486216 10.954269 0.015395 -0.727775 10.954266 0.015394 -0.727774 -10.488468 -1.507123 -3.335362 -17.458226 -3.810664 2.377785 -0.000000 0.000000 0.000000 -0.000000 0.000000 0.000000 -0.000000 0.000000 0.000000 9.415817 -6.332824 -14.940508 -10.335371 9.119224 -35.401089 -0.083013 -55.059811 0.127378 23.662367 -10.766571 14.943545 1.625156 7.218841 -4.240197 -0.186562 -0.783308 -15.852985 0.000004 -0.000001 -0.000005 0.000003 0.000001 0.000001 7.648436 -14.094096 -10.004928 -1.042502 0.162964 1.989773 0.000014 0.000008 0.000005 0.000004 -0.000001 -0.000000 5.740411 -9.587983 -10.498494 0.032340 0.662163 -10.531737 -0.000003 -0.000006 -0.000006 -0.000002 -0.000002 0.000005 1.674647 11.005604 -8.083298 -0.176301 -2.858579 -23.756301 -0.000008 -0.000004 0.000003 -0.000003 0.000002 0.000003 0.674498 27.923149 -16.042940 -0.829574 -6.109193 -28.992008 -0.000003 -0.000004 -0.000004 0.000001 -0.000000 -0.000000 -3.387832 -0.036297 -0.342392 -10.450779 -10.100648 60.251421 -0.350959 54.598876 -0.078081 36.026769 -13.083955 -12.793120 -1.723045 -1.672053 3.101703 -0.251295 0.794415 21.330698 0.000009 0.000011 0.000006 -0.000001 -0.000003 -0.000001 -5.003814 12.304104 9.163932 -1.205714 -0.200879 -2.215531 -0.000002 -0.000010 0.000001 0.000000 -0.000001 0.000001 10.291402 13.641870 5.659269 0.012199 -0.644395 4.056820 0.000000 -0.000004 0.000001 0.000001 0.000002 -0.000001 -0.853623 -13.697839 18.042322 -0.242382 2.208566 16.202375 0.000006 0.000008 0.000008 0.000001 -0.000003 -0.000005 -4.464788 -23.962797 29.630846 -0.224522 5.090636 12.771428 -0.000003 -0.000001 -0.000001 -0.000003 0.000001 0.000001 -24.170416 -6.455339 9.303390 27.830366 -0.290020 -1.054518 -2.546486 -2.975759 -12.903420 0.002989 -0.026199 0.062610 -0.000000 0.000000 -0.000000 -22.272917 -12.081093 -19.616781 40.430905 -0.029201 1.446100 -15.993670 -8.021485 9.226947 0.305952 -0.188635 0.449697 -0.000000 0.000000 -0.000000 
0.404141 189.635788 2.162943 -1.745098 6.466387 2.923598 5.342527 0.011322 -0.475991 10.685053 0.035816 -0.718324 10.685052 0.035818 -0.718324 -10.319098 -1.447794 -3.206840 -17.399408 -3.430856 2.207735 0.000000 -0.000000 -0.000000 0.000000 -0.000000 -0.000000 0.000000 -0.000000 -0.000000 9.288734 -6.032402 -14.809546 -9.195974 8.585745 -35.842401 -0.018924 -54.914875 0.181485 23.689063 -10.091643 14.274793 1.574477 7.087353 -3.824394 -0.181748 -0.761127 -15.457987 0.000001 -0.000005 -0.000010 -0.000001 0.000003 -0.000001 8.156556 -13.126562 -8.707052 -0.998527 0.133783 2.032977 0.000015 0.000006 0.000007 -0.000002 0.000000 0.000001 5.779803 -9.660846 -9.575605 0.028404 0.649679 -10.238432 -0.000003 -0.000007 -0.000012 0.000000 0.000000 0.000001 1.608623 11.017581 -7.690872 -0.145255 -2.785656 -23.062258 -0.000004 -0.000001 -0.000001 0.000001 0.000001 -0.000003 0.593095 27.928025 -15.708293 -0.767477 -6.008415 -28.488086 0.000002 -0.000001 -0.000001 0.000000 0.000001 0.000004 -3.326007 -0.220621 -0.166908 -10.638675 -9.773582 59.845639 -0.627911 53.549991 0.143407 39.564564 -11.928392 -8.689478 -1.689314 -1.713735 2.402581 -0.244925 0.773845 20.821775 0.000005 0.000006 0.000013 -0.000001 0.000001 -0.000001 -5.170354 12.078733 8.730767 -1.191690 -0.168117 -2.355744 -0.000005 -0.000014 0.000004 -0.000002 0.000000 0.000004 10.227064 13.747071 4.936607 0.009645 -0.629247 3.861874 0.000000 -0.000002 -0.000001 0.000001 0.000000 -0.000000 -0.913137 -13.635814 17.272652 -0.241353 2.189822 16.108190 -0.000000 0.000009 0.000013 0.000005 -0.000001 0.000003 -4.633316 -24.022045 28.548367 -0.182338 4.960467 12.306202 0.000000 -0.000003 -0.000000 -0.000001 0.000000 0.000001 -24.318457 -6.476638 9.296931 28.667520 -0.523119 -1.094134 -3.116992 -2.918479 -12.814298 0.002986 -0.026198 0.062613 0.000000 -0.000000 -0.000000 -21.970997 -12.083003 -19.640149 40.605731 -0.192780 1.439760 -16.243315 -8.003083 9.399340 0.130255 -0.188334 0.449215 0.000000 0.000001 -0.000000 
0.674447 189.441269 2.794782 -2.011722 6.572692 2.847569 5.156541 0.032261 -0.442072 10.313129 0.077315 -0.670453 10.313121 0.077314 -0.670453 -10.014030 -1.346217 -3.042910 -17.042777 -2.892469 1.957288 0.000000 -0.000000 0.000000 0.000000 -0.000000 0.000000 0.000000 -0.000000 0.000000 9.078728 -5.570446 -14.657898 -7.872815 7.727013 -36.420526 0.160325 -53.984873 0.323198 22.425610 -9.321199 12.769114 1.484438 6.561234 -2.323684 -0.174838 -0.729314 -14.875452 0.000006 -0.000005 -0.000000 0.000002 0.000001 0.000001 9.708776 -10.474162 -7.825281 -0.780735 0.780005 1.862006 0.000021 0.000007 0.000003 -0.000001 0.000001 -0.000001 6.078093 -10.348372 -7.588040 0.017903 0.623531 -9.379712 -0.000007 -0.000008 -0.000009 -0.000002 -0.000002 0.000002 1.460260 11.151298 -6.694967 -0.079805 -2.636052 -21.561738 0.000001 -0.000002 -0.000003 -0.000001 0.000000 0.000002 0.804070 29.147890 -15.828748 -0.651788 -5.826286 -27.486667 0.000003 -0.000002 -0.000001 0.000000 0.000001 0.000001 -3.225109 -0.521998 0.115148 -10.478905 -8.974941 59.252492 -0.906953 52.112359 0.347459 42.614315 -10.277013 -4.953835 -1.611245 -1.850983 0.540268 -0.233194 0.732967 19.874237 0.000011 0.000010 0.000012 0.000001 -0.000000 0.000007 -5.301828 11.283518 8.602740 -1.168967 -0.123470 -2.536571 -0.000001 -0.000012 0.000001 0.000002 0.000001 0.000001 10.305755 14.153001 3.366637 0.006105 -0.606259 3.581161 0.000002 -0.000003 -0.000005 0.000001 0.000001 -0.000004 -1.105274 -13.582103 15.437821 -0.235618 2.148225 15.846843 0.000004 0.000007 0.000011 0.000003 0.000002 0.000002 -5.400851 -24.668984 25.660082 -0.095320 4.705474 11.287073 0.000000 -0.000003 -0.000000 0.000001 -0.000000 -0.000001 -24.329141 -6.484512 9.336647 29.598427 -0.783848 -1.135734 -3.795806 -2.853091 -12.689385 0.002988 -0.026200 0.062609 -0.000000 0.000000 0.000000 -21.384463 -12.009638 -19.551948 40.670546 -0.431747 1.425351 -16.487151 -8.041821 9.641344 0.025040 -0.188126 0.448929 -0.000000 0.000000 0.000000 
